<svg xmlns="http://www.w3.org/2000/svg" width="512" height="512" viewBox="0 0 512 512">
  <defs>
    <linearGradient id="bg" x1="0%" y1="0%" x2="100%" y2="100%">
      <stop offset="0%" stop-color="#0284c7"/>
      <stop offset="100%" stop-color="#0f172a"/>
    </linearGradient>
    <linearGradient id="shieldGrad" x1="0%" y1="0%" x2="0%" y2="100%">
      <stop offset="0%" stop-color="#38bdf8"/>
      <stop offset="100%" stop-color="#0284c7"/>
    </linearGradient>
  </defs>
  <rect width="512" height="512" rx="100" fill="url(#bg)"/>
  <!-- Shield outline -->
  <path d="M256 96 L376 144 V248 C376 332 320 392 256 424 C192 392 136 332 136 248 V144 Z" fill="url(#shieldGrad)" opacity="0.25"/>
  <path d="M256 112 L360 154 V248 C360 320 310 374 256 404 C202 374 152 320 152 248 V154 Z" fill="none" stroke="#38bdf8" stroke-width="12" stroke-linejoin="round"/>
  <!-- Medical Heartbeat Line -->
  <path d="M180 260 H220 L236 210 L256 310 L276 230 L292 260 H332" fill="none" stroke="#ffffff" stroke-width="16" stroke-linecap="round" stroke-linejoin="round"/>
</svg>
